<svg width="256" height="256" viewBox="0 0 95 95" xmlns="http://www.w3.org/2000/svg" preserveAspectRatio="xMidYMid">
  <g transform="translate(2,2)">
    <path d="M 20,5 H 70 C 72.761,5 75,7.239 75,10 V 20 H 60 V 80 C 60,82.761 57.761,85 55,85 H 35 C 32.239,85 30,82.761 30,80 V 20 H 15 V 10 C 15,7.239 17.239,5 20,5 Z" fill="#FFFFFF"/>
    
    <path d="M 22,12 H 68 V 22 H 53 V 77 H 37 V 22 H 22 Z" fill="#5E2E72"/>
    
    <path d="M 22,10 H 68 V 20 H 53 V 75 H 37 V 20 H 22 Z" fill="#7E3F98"/>
    
    <rect x="44" y="0" width="4" height="6" fill="#201125" rx="2"/>
    
    <g transform="translate(45, 15)">
      <circle cx="0" cy="0" r="3.5" fill="#FFFFFF"/>
      
      <path d="M 0,0 L 22,-9" stroke="#201125" stroke-width="1.5" stroke-linecap="round"/>
      <path d="M 0,0 L -2,-11" stroke="#201125" stroke-width="1.5" stroke-linecap="round"/>
    </g>
  </g>
</svg>