<svg width="48" height="48" viewBox="0 0 48 48" fill="none" xmlns="http://www.w3.org/2000/svg">
  <defs>
    <!-- Primary gradient: Fresh purple to soft light blue -->
    <linearGradient id="primaryGradient" x1="0%" y1="0%" x2="100%" y2="100%">
      <stop offset="0%" stop-color="#8B5CF6"/>
      <stop offset="100%" stop-color="#06B6D4"/>
    </linearGradient>
    
    <!-- Acai accent gradient -->
    <linearGradient id="acaiGradient" x1="0%" y1="0%" x2="100%" y2="100%">
      <stop offset="0%" stop-color="#7C3AED"/>
      <stop offset="100%" stop-color="#4C1D95"/>
    </linearGradient>

    <!-- Dark background gradient for contrast -->
    <linearGradient id="darkGradient" x1="0%" y1="0%" x2="100%" y2="100%">
      <stop offset="0%" stop-color="#1F2937"/>
      <stop offset="100%" stop-color="#111827"/>
    </linearGradient>
  </defs>
  
  <!-- Dark background circle for contrast -->
  <circle cx="24" cy="24" r="22" fill="url(#darkGradient)" stroke="url(#primaryGradient)" stroke-width="4"/>
  
  <!-- Center dot - larger -->
  <circle cx="24" cy="24" r="3" fill="url(#acaiGradient)"/>
  
  <!-- Prominent shopping bag - much larger -->
  <g transform="translate(24, 24) scale(1.6)">
    <!-- Main bag body - larger -->
    <path d="M-8 -3 L8 -3 L6 10 L-6 10 Z" fill="url(#primaryGradient)" stroke="url(#acaiGradient)" stroke-width="2.5"/>
    
    <!-- Bag handles - more prominent and thicker -->
    <path d="M-5 -3 L-5 -6 C-5 -8 -3 -10 -1 -10 L1 -10 C3 -10 5 -8 5 -6 L5 -3" 
          fill="none" stroke="url(#primaryGradient)" stroke-width="3.5" stroke-linecap="round"/>
    
    <!-- Shopping items inside bag - larger and more visible -->
    <circle cx="-2.5" cy="1.5" r="1.8" fill="url(#acaiGradient)" opacity="0.9"/>
    <circle cx="2.5" cy="3" r="1.5" fill="url(#acaiGradient)" opacity="0.9"/>
    <circle cx="0" cy="5.5" r="1.3" fill="url(#acaiGradient)" opacity="0.9"/>
    
    <!-- Additional shopping items for more detail -->
    <rect x="-1" y="0.5" width="2" height="1.5" rx="0.3" fill="url(#primaryGradient)" opacity="0.8"/>
  </g>
  
  <!-- Clock time indicators at 12, 3, 6, 9 positions - larger and more contrasted -->
  <circle cx="24" cy="4" r="2.5" fill="url(#primaryGradient)" opacity="0.9"/>
  <circle cx="44" cy="24" r="2.5" fill="url(#primaryGradient)" opacity="0.9"/>
  <circle cx="24" cy="44" r="2.5" fill="url(#primaryGradient)" opacity="0.9"/>
  <circle cx="4" cy="24" r="2.5" fill="url(#primaryGradient)" opacity="0.9"/>
</svg>