<svg width="48" height="48" viewBox="0 0 48 48" fill="none" xmlns="http://www.w3.org/2000/svg">
  <defs>
    <!-- Primary gradient: Fresh purple to soft light blue -->
    <linearGradient id="primaryGradient" x1="0%" y1="0%" x2="100%" y2="100%">
      <stop offset="0%" stop-color="#8B5CF6"/>
      <stop offset="100%" stop-color="#06B6D4"/>
    </linearGradient>
    
    <!-- Acai accent gradient -->
    <linearGradient id="acaiGradient" x1="0%" y1="0%" x2="100%" y2="100%">
      <stop offset="0%" stop-color="#7C3AED"/>
      <stop offset="100%" stop-color="#4C1D95"/>
    </linearGradient>
  </defs>
  
  <!-- Main clock circle - only one circle now -->
  <circle cx="24" cy="24" r="20" fill="rgba(255,255,255,0.95)" stroke="url(#primaryGradient)" stroke-width="3"/>
  
  <!-- Center dot -->
  <circle cx="24" cy="24" r="2.5" fill="url(#acaiGradient)"/>
  
  <!-- Prominent shopping bag -->
  <g transform="translate(24, 24)">
    <!-- Main bag body -->
    <path d="M-10 -4 L10 -4 L8 12 L-8 12 Z" fill="url(#primaryGradient)" stroke="url(#acaiGradient)" stroke-width="2"/>
    
    <!-- Bag handles - more prominent -->
    <path d="M-6 -4 L-6 -8 C-6 -10 -4 -12 -2 -12 L2 -12 C4 -12 6 -10 6 -8 L6 -4" 
          fill="none" stroke="url(#primaryGradient)" stroke-width="3" stroke-linecap="round"/>
    
    <!-- Shopping items inside bag -->
    <circle cx="-3" cy="2" r="1.5" fill="url(#acaiGradient)" opacity="0.8"/>
    <circle cx="3" cy="4" r="1.2" fill="url(#acaiGradient)" opacity="0.8"/>
    <circle cx="0" cy="6" r="1" fill="url(#acaiGradient)" opacity="0.8"/>
  </g>
  
  <!-- Clock time indicators at 12, 3, 6, 9 positions -->
  <circle cx="24" cy="6" r="1.5" fill="url(#acaiGradient)" opacity="0.7"/>
  <circle cx="42" cy="24" r="1.5" fill="url(#acaiGradient)" opacity="0.7"/>
  <circle cx="24" cy="42" r="1.5" fill="url(#acaiGradient)" opacity="0.7"/>
  <circle cx="6" cy="24" r="1.5" fill="url(#acaiGradient)" opacity="0.7"/>
</svg>