<svg width="1500" height="1500" viewBox="0 0 500 500" xmlns="http://www.w3.org/2000/svg" fill-rule="evenodd" clip-rule="evenodd">
  <defs>
    <linearGradient id="timelyGradient" x1="0%" y1="0%" x2="100%" y2="100%">
      <stop offset="0%" style="stop-color:#A044FF; stop-opacity:1" />
      <stop offset="100%" style="stop-color:#21D4FD; stop-opacity:1" />
    </linearGradient>
  </defs>
  <path
    fill="url(#timelyGradient)"
    d="M426.5,102c-24.5-24.5-57.5-39-94-39h-165c-36.5,0-69.5,14.5-94,39c-24.5,24.5-39,57.5-39,94v3c0,73,59.5,132.5,132.5,132.5h44.5v-28h-44.5c-57.5,0-104.5-47-104.5-104.5v-3c0-29,11.5-55.5,30.5-75.5c19.5-19.5,46-30.5,74-30.5h165c28.5,0,54.5,11.5,74,30.5c19.5,19.5,30.5,46,30.5,75.5v3c0,57.5-47,104.5-104.5,104.5h-22v28h22c73,0,132.5-59.5,132.5-132.5v-3C465.5,159.5,451,126.5,426.5,102z M416.5,278H278v-14c0-23-18.5-41.5-41.5-41.5h-125c-23,0-41.5,18.5-41.5,41.5v125c0,23,18.5,41.5,41.5,41.5h125c23,0,41.5-18.5,41.5-41.5v-14h138.5c11.5,0,21-9.5,21-21v-41.5C437.5,287.5,428,278,416.5,278z M139,375h-14v-70h14V375z M208.5,375h-14v-70h14V375z M278,375h-14v-70h14V375z"
  />
</svg>