<!-- timely-logo.svg -->
<svg width="200" height="50" viewBox="0 0 200 50" fill="none"
     xmlns="http://www.w3.org/2000/svg">
  <defs>
    <linearGradient id="timely-logo-gradient" x1="0" y1="0" x2="1" y2="1">
      <stop offset="0%" stop-color="#4F46E5"/>
      <stop offset="100%" stop-color="#8B5CF6"/>
    </linearGradient>
  </defs>
  <g>
    <path d="M9.82 2.39L8.24 3.97C7.99 4.22 7.99 4.61 8.24 4.86L9.82 6.44C10.07 6.69 10.46 6.69 10.71 6.44L12.29 4.86C12.54 4.61 12.54 4.22 12.29 3.97L10.71 2.39C10.46 2.14 10.07 2.14 9.82 2.39Z" fill="url(#timely-logo-gradient)"/>
    <path d="M16.53 9.06L14.95 10.64C14.7 10.89 14.7 11.28 14.95 11.53L16.53 13.11C16.78 13.36 17.17 13.36 17.42 13.11L18.99 11.53C19.24 11.28 19.24 10.89 18.99 10.64L17.42 9.06C17.17 8.81 16.78 8.81 16.53 9.06Z" fill="url(#timely-logo-gradient)"/>
    <path d="M9.82 15.73L8.24 17.31C7.99 17.56 7.99 17.95 8.24 18.2L9.82 19.78C10.07 20.03 10.46 20.03 10.71 19.78L12.29 18.2C12.54 17.95 12.54 17.56 12.29 17.31L10.71 15.73C10.46 15.48 10.07 15.48 9.82 15.73Z" fill="url(#timely-logo-gradient)"/>
    <path d="M24.79 22.42C24.43 22.42 24.11 22.56 23.87 22.8L22.29 24.38C22.04 24.63 22.04 25.02 22.29 25.27L23.87 26.85C24.12 27.1 24.51 27.1 24.76 26.85L26.34 25.27C26.59 25.02 26.59 24.63 26.34 24.38L24.76 22.8C24.51 22.56 24.12 22.42 24.79 22.42Z" fill="url(#timely-logo-gradient)"/>
    <path d="M30.63 30.26L29.05 31.84C28.8 32.09 28.8 32.48 29.05 32.73L30.63 34.31C30.88 34.56 31.27 34.56 31.52 34.31L33.1 32.73C33.35 32.48 33.35 32.09 33.1 31.84L31.52 30.26C31.27 30.01 30.88 30.01 30.63 30.26Z" fill="url(#timely-logo-gradient)"/>
    <path d="M37.34 37.7L35.76 39.28C35.51 39.53 35.51 39.92 35.76 40.17L37.34 41.75C37.59 42 37.98 42 38.23 41.75L39.81 40.17C40.06 39.92 40.06 39.53 39.81 39.28L38.23 37.7C37.98 37.45 37.59 37.45 37.34 37.7Z" fill="url(#timely-logo-gradient)"/>
  </g>
  <text x="50" y="32" font-family="Inter, sans-serif" font-size="24" font-weight="bold" fill="url(#timely-logo-gradient)">
    Timely
  </text>
</svg>
